<mxfile host="app.diagrams.net" agent="Mozilla/5.0 (Windows NT 10.0; Win64; x64) AppleWebKit/537.36 (KHTML, like Gecko) Chrome/135.0.0.0 Safari/537.36" version="26.2.14">
  <diagram name="Page-1" id="pgiMqyUjf4aCU3Kz9-66">
    <mxGraphModel dx="1429" dy="910" grid="1" gridSize="10" guides="1" tooltips="1" connect="1" arrows="1" fold="1" page="1" pageScale="1" pageWidth="850" pageHeight="1100" math="0" shadow="0">
      <root>
        <mxCell id="0" />
        <mxCell id="1" parent="0" />
        <mxCell id="iwBYStO_40tfpdYds1Tp-1" value="Department" style="swimlane;whiteSpace=wrap;html=1;fillColor=#1ba1e2;fontColor=#ffffff;strokeColor=#006EAF;fillStyle=auto;" vertex="1" parent="1">
          <mxGeometry x="40" y="40" width="200" height="140" as="geometry" />
        </mxCell>
        <mxCell id="iwBYStO_40tfpdYds1Tp-2" value="ID{PK}" style="text;html=1;align=center;verticalAlign=middle;resizable=0;points=[];autosize=1;strokeColor=none;fillColor=none;" vertex="1" parent="iwBYStO_40tfpdYds1Tp-1">
          <mxGeometry x="15" y="38" width="60" height="30" as="geometry" />
        </mxCell>
        <mxCell id="iwBYStO_40tfpdYds1Tp-4" value="location" style="text;html=1;align=center;verticalAlign=middle;resizable=0;points=[];autosize=1;strokeColor=none;fillColor=none;" vertex="1" parent="iwBYStO_40tfpdYds1Tp-1">
          <mxGeometry x="15" y="98" width="60" height="30" as="geometry" />
        </mxCell>
        <mxCell id="iwBYStO_40tfpdYds1Tp-3" value="name" style="text;html=1;align=center;verticalAlign=middle;resizable=0;points=[];autosize=1;strokeColor=none;fillColor=none;" vertex="1" parent="iwBYStO_40tfpdYds1Tp-1">
          <mxGeometry x="20" y="68" width="50" height="30" as="geometry" />
        </mxCell>
        <mxCell id="iwBYStO_40tfpdYds1Tp-5" value="Doktah" style="swimlane;whiteSpace=wrap;html=1;fillColor=#1ba1e2;fontColor=#ffffff;strokeColor=#006EAF;" vertex="1" parent="1">
          <mxGeometry x="400" y="40" width="200" height="200" as="geometry" />
        </mxCell>
        <mxCell id="iwBYStO_40tfpdYds1Tp-7" value="Name" style="text;html=1;align=center;verticalAlign=middle;resizable=0;points=[];autosize=1;strokeColor=none;fillColor=none;" vertex="1" parent="iwBYStO_40tfpdYds1Tp-5">
          <mxGeometry x="5" y="60" width="60" height="30" as="geometry" />
        </mxCell>
        <mxCell id="iwBYStO_40tfpdYds1Tp-8" value="Phone number" style="text;html=1;align=center;verticalAlign=middle;resizable=0;points=[];autosize=1;strokeColor=none;fillColor=none;" vertex="1" parent="iwBYStO_40tfpdYds1Tp-5">
          <mxGeometry x="5" y="140" width="100" height="30" as="geometry" />
        </mxCell>
        <mxCell id="iwBYStO_40tfpdYds1Tp-6" value="ID {PK}" style="text;html=1;align=center;verticalAlign=middle;resizable=0;points=[];autosize=1;strokeColor=none;fillColor=none;" vertex="1" parent="iwBYStO_40tfpdYds1Tp-5">
          <mxGeometry x="10" y="38" width="60" height="30" as="geometry" />
        </mxCell>
        <mxCell id="iwBYStO_40tfpdYds1Tp-9" value="Address" style="text;html=1;align=center;verticalAlign=middle;resizable=0;points=[];autosize=1;strokeColor=none;fillColor=none;" vertex="1" parent="iwBYStO_40tfpdYds1Tp-5">
          <mxGeometry x="5" y="100" width="70" height="30" as="geometry" />
        </mxCell>
        <mxCell id="iwBYStO_40tfpdYds1Tp-10" value="Salary" style="text;html=1;align=center;verticalAlign=middle;resizable=0;points=[];autosize=1;strokeColor=none;fillColor=none;" vertex="1" parent="iwBYStO_40tfpdYds1Tp-5">
          <mxGeometry x="5" y="80" width="60" height="30" as="geometry" />
        </mxCell>
        <mxCell id="iwBYStO_40tfpdYds1Tp-11" value="Date of joining" style="text;html=1;align=center;verticalAlign=middle;resizable=0;points=[];autosize=1;strokeColor=none;fillColor=none;" vertex="1" parent="iwBYStO_40tfpdYds1Tp-5">
          <mxGeometry x="5" y="120" width="100" height="30" as="geometry" />
        </mxCell>
        <mxCell id="iwBYStO_40tfpdYds1Tp-20" value="Registration form" style="swimlane;whiteSpace=wrap;html=1;fillColor=#1ba1e2;fontColor=#ffffff;strokeColor=#006EAF;" vertex="1" parent="1">
          <mxGeometry x="40" y="400" width="200" height="240" as="geometry" />
        </mxCell>
        <mxCell id="iwBYStO_40tfpdYds1Tp-21" value="PatientName" style="text;html=1;align=center;verticalAlign=middle;resizable=0;points=[];autosize=1;strokeColor=none;fillColor=none;" vertex="1" parent="iwBYStO_40tfpdYds1Tp-20">
          <mxGeometry y="40" width="90" height="30" as="geometry" />
        </mxCell>
        <mxCell id="iwBYStO_40tfpdYds1Tp-22" value="PatientCountry" style="text;html=1;align=center;verticalAlign=middle;resizable=0;points=[];autosize=1;strokeColor=none;fillColor=none;" vertex="1" parent="iwBYStO_40tfpdYds1Tp-20">
          <mxGeometry y="70" width="100" height="30" as="geometry" />
        </mxCell>
        <mxCell id="iwBYStO_40tfpdYds1Tp-23" value="IC number{PK}" style="text;html=1;align=center;verticalAlign=middle;resizable=0;points=[];autosize=1;strokeColor=none;fillColor=none;" vertex="1" parent="iwBYStO_40tfpdYds1Tp-20">
          <mxGeometry y="100" width="100" height="30" as="geometry" />
        </mxCell>
        <mxCell id="iwBYStO_40tfpdYds1Tp-25" value="Date of birth" style="text;html=1;align=center;verticalAlign=middle;resizable=0;points=[];autosize=1;strokeColor=none;fillColor=none;" vertex="1" parent="iwBYStO_40tfpdYds1Tp-20">
          <mxGeometry y="128" width="90" height="30" as="geometry" />
        </mxCell>
        <mxCell id="iwBYStO_40tfpdYds1Tp-26" value="Sex" style="text;html=1;align=center;verticalAlign=middle;resizable=0;points=[];autosize=1;strokeColor=none;fillColor=none;" vertex="1" parent="iwBYStO_40tfpdYds1Tp-20">
          <mxGeometry x="5" y="158" width="40" height="30" as="geometry" />
        </mxCell>
        <mxCell id="iwBYStO_40tfpdYds1Tp-27" value="Phone number" style="text;html=1;align=center;verticalAlign=middle;resizable=0;points=[];autosize=1;strokeColor=none;fillColor=none;" vertex="1" parent="iwBYStO_40tfpdYds1Tp-20">
          <mxGeometry x="5" y="180" width="100" height="30" as="geometry" />
        </mxCell>
        <mxCell id="iwBYStO_40tfpdYds1Tp-28" value="Address" style="text;html=1;align=center;verticalAlign=middle;resizable=0;points=[];autosize=1;strokeColor=none;fillColor=none;" vertex="1" parent="iwBYStO_40tfpdYds1Tp-20">
          <mxGeometry y="200" width="70" height="30" as="geometry" />
        </mxCell>
        <mxCell id="iwBYStO_40tfpdYds1Tp-29" value="Registered patient" style="swimlane;whiteSpace=wrap;html=1;fillColor=#1ba1e2;fontColor=#ffffff;strokeColor=#006EAF;" vertex="1" parent="1">
          <mxGeometry x="400" y="400" width="200" height="200" as="geometry" />
        </mxCell>
        <mxCell id="iwBYStO_40tfpdYds1Tp-30" value="ID" style="text;html=1;align=center;verticalAlign=middle;resizable=0;points=[];autosize=1;strokeColor=none;fillColor=none;" vertex="1" parent="iwBYStO_40tfpdYds1Tp-29">
          <mxGeometry x="5" y="40" width="40" height="30" as="geometry" />
        </mxCell>
        <mxCell id="iwBYStO_40tfpdYds1Tp-31" value="Registration date" style="text;html=1;align=center;verticalAlign=middle;resizable=0;points=[];autosize=1;strokeColor=none;fillColor=none;" vertex="1" parent="iwBYStO_40tfpdYds1Tp-29">
          <mxGeometry x="10" y="80" width="110" height="30" as="geometry" />
        </mxCell>
        <mxCell id="iwBYStO_40tfpdYds1Tp-32" value="" style="endArrow=none;html=1;rounded=0;" edge="1" parent="1">
          <mxGeometry width="50" height="50" relative="1" as="geometry">
            <mxPoint x="240" y="100" as="sourcePoint" />
            <mxPoint x="400" y="100" as="targetPoint" />
          </mxGeometry>
        </mxCell>
        <mxCell id="iwBYStO_40tfpdYds1Tp-33" value="" style="endArrow=none;html=1;rounded=0;" edge="1" parent="1">
          <mxGeometry width="50" height="50" relative="1" as="geometry">
            <mxPoint x="240" y="139.7" as="sourcePoint" />
            <mxPoint x="400" y="139.7" as="targetPoint" />
          </mxGeometry>
        </mxCell>
        <mxCell id="iwBYStO_40tfpdYds1Tp-34" value="" style="endArrow=none;html=1;rounded=0;entryX=0.5;entryY=1;entryDx=0;entryDy=0;exitX=0.5;exitY=0;exitDx=0;exitDy=0;" edge="1" parent="1" source="iwBYStO_40tfpdYds1Tp-29" target="iwBYStO_40tfpdYds1Tp-5">
          <mxGeometry width="50" height="50" relative="1" as="geometry">
            <mxPoint x="550" y="310" as="sourcePoint" />
            <mxPoint x="600" y="260" as="targetPoint" />
          </mxGeometry>
        </mxCell>
        <mxCell id="iwBYStO_40tfpdYds1Tp-35" value="Consultation record" style="swimlane;whiteSpace=wrap;html=1;fillColor=#1ba1e2;fontColor=#ffffff;strokeColor=#006EAF;" vertex="1" parent="1">
          <mxGeometry x="800" y="40" width="200" height="200" as="geometry" />
        </mxCell>
        <mxCell id="iwBYStO_40tfpdYds1Tp-36" value="" style="endArrow=none;html=1;rounded=0;" edge="1" parent="1">
          <mxGeometry width="50" height="50" relative="1" as="geometry">
            <mxPoint x="600" y="120" as="sourcePoint" />
            <mxPoint x="800" y="120" as="targetPoint" />
          </mxGeometry>
        </mxCell>
      </root>
    </mxGraphModel>
  </diagram>
</mxfile>
